<svg width="29" height="29" viewBox="0 0 29 29" fill="none" xmlns="http://www.w3.org/2000/svg">
<path fill-rule="evenodd" clip-rule="evenodd" d="M15.4688 22.5001C16.2148 22.5001 16.9301 22.7965 17.4576 23.3239C17.985 23.8514 18.2814 24.5667 18.2814 25.3127C18.2814 26.0586 17.985 26.774 17.4576 27.3014C16.9301 27.8288 16.2148 28.1252 15.4688 28.1252C14.7229 28.1252 14.0075 27.8288 13.4801 27.3014C12.9526 26.774 12.6563 26.0586 12.6563 25.3127C12.6563 24.5667 12.9526 23.8514 13.4801 23.3239C14.0075 22.7965 14.7229 22.5001 15.4688 22.5001ZM6.66707 18.2814C7.59948 18.2814 8.4937 18.6518 9.15301 19.3111C9.81232 19.9704 10.1827 20.8646 10.1827 21.797C10.1827 22.7294 9.81232 23.6236 9.15301 24.2829C8.4937 24.9423 7.59948 25.3127 6.66707 25.3127C5.73466 25.3127 4.84045 24.9423 4.18113 24.2829C3.52182 23.6236 3.15142 22.7294 3.15142 21.797C3.15142 20.8646 3.52182 19.9704 4.18113 19.3111C4.84045 18.6518 5.73466 18.2814 6.66707 18.2814ZM22.9487 18.9845C23.6947 18.9845 24.41 19.2808 24.9375 19.8083C25.4649 20.3357 25.7612 21.0511 25.7612 21.797C25.7612 22.5429 25.4649 23.2583 24.9375 23.7858C24.41 24.3132 23.6947 24.6095 22.9487 24.6095C22.2028 24.6095 21.4874 24.3132 20.96 23.7858C20.4325 23.2583 20.1362 22.5429 20.1362 21.797C20.1362 21.0511 20.4325 20.3357 20.96 19.8083C21.4874 19.2808 22.2028 18.9845 22.9487 18.9845ZM26.0158 13.1049C26.5752 13.1049 27.1118 13.3272 27.5073 13.7227C27.9029 14.1183 28.1252 14.6549 28.1252 15.2143C28.1252 15.7738 27.9029 16.3103 27.5073 16.7059C27.1118 17.1015 26.5752 17.3237 26.0158 17.3237C25.4563 17.3237 24.9198 17.1015 24.5242 16.7059C24.1286 16.3103 23.9064 15.7738 23.9064 15.2143C23.9064 14.6549 24.1286 14.1183 24.5242 13.7227C24.9198 13.3272 25.4563 13.1049 26.0158 13.1049ZM3.51565 8.43755C4.44805 8.43755 5.34227 8.80795 6.00158 9.46726C6.66089 10.1266 7.03129 11.0208 7.03129 11.9532C7.03129 12.8856 6.66089 13.7798 6.00158 14.4391C5.34227 15.0984 4.44805 15.4688 3.51565 15.4688C2.58324 15.4688 1.68902 15.0984 1.02971 14.4391C0.370397 13.7798 0 12.8856 0 11.9532C0 11.0208 0.370397 10.1266 1.02971 9.46726C1.68902 8.80795 2.58324 8.43755 3.51565 8.43755ZM25.0117 7.32239C25.3847 7.32239 25.7424 7.47055 26.0061 7.73427C26.2698 7.998 26.418 8.35568 26.418 8.72865C26.418 9.10161 26.2698 9.4593 26.0061 9.72302C25.7424 9.98675 25.3847 10.1349 25.0117 10.1349C24.6387 10.1349 24.2811 9.98675 24.0173 9.72302C23.7536 9.4593 23.6055 9.10161 23.6055 8.72865C23.6055 8.35568 23.7536 7.998 24.0173 7.73427C24.2811 7.47055 24.6387 7.32239 25.0117 7.32239ZM11.2501 1.90735e-06C12.369 1.90735e-06 13.442 0.444479 14.2332 1.23565C15.0244 2.02683 15.4688 3.09989 15.4688 4.21878C15.4688 5.33767 15.0244 6.41073 14.2332 7.2019C13.442 7.99308 12.369 8.43755 11.2501 8.43755C10.1312 8.43755 9.05812 7.99308 8.26694 7.2019C7.47577 6.41073 7.03129 5.33767 7.03129 4.21878C7.03129 3.09989 7.47577 2.02683 8.26694 1.23565C9.05812 0.444479 10.1312 1.90735e-06 11.2501 1.90735e-06ZM21.797 4.21878C21.9835 4.21878 22.1623 4.29286 22.2942 4.42472C22.4261 4.55658 22.5001 4.73542 22.5001 4.92191C22.5001 5.10839 22.4261 5.28723 22.2942 5.41909C22.1623 5.55096 21.9835 5.62504 21.797 5.62504C21.6105 5.62504 21.4317 5.55096 21.2998 5.41909C21.168 5.28723 21.0939 5.10839 21.0939 4.92191C21.0939 4.73542 21.168 4.55658 21.2998 4.42472C21.4317 4.29286 21.6105 4.21878 21.797 4.21878Z" fill="white"/>
</svg>
