<svg width="20" height="17" viewBox="0 0 20 17" fill="none" xmlns="http://www.w3.org/2000/svg">
<path d="M10 16H2C1.45 16 0.979002 15.804 0.587002 15.412C0.195002 15.02 -0.000664969 14.5493 1.69779e-06 14V13.2C1.69779e-06 12.6333 0.146002 12.1123 0.438002 11.637C0.730002 11.1617 1.11733 10.7993 1.6 10.55C2.63333 10.0333 3.68334 9.64567 4.75 9.387C5.81667 9.12833 6.9 8.99933 8 9C8.33334 9 8.66667 9.01267 9 9.038C9.33334 9.06333 9.66667 9.10067 10 9.15V16ZM8 8C6.9 8 5.95834 7.60833 5.175 6.825C4.39167 6.04167 4 5.1 4 4C4 2.9 4.39167 1.95833 5.175 1.175C5.95834 0.391667 6.9 0 8 0C9.1 0 10.0417 0.391667 10.825 1.175C11.6083 1.95833 12 2.9 12 4C12 5.1 11.6083 6.04167 10.825 6.825C10.0417 7.60833 9.1 8 8 8Z" fill="#041D33"/>
<path d="M17.1042 13.4167H16.7421L16.6137 13.2929C16.9002 12.9601 17.1095 12.5682 17.2268 12.1451C17.3441 11.7219 17.3663 11.2781 17.2921 10.8454C17.0767 9.57124 16.0133 8.55374 14.73 8.39791C14.2788 8.34083 13.8206 8.38772 13.3903 8.53499C12.96 8.68226 12.5692 8.92601 12.2476 9.24758C11.926 9.56915 11.6823 9.96003 11.535 10.3903C11.3877 10.8206 11.3408 11.2788 11.3979 11.73C11.5537 13.0133 12.5712 14.0767 13.8454 14.2921C14.2781 14.3663 14.7219 14.3441 15.1451 14.2268C15.5682 14.1095 15.9601 13.9002 16.2929 13.6137L16.4167 13.7421V14.1042L18.3646 16.0521C18.5525 16.24 18.8596 16.24 19.0475 16.0521C19.2354 15.8642 19.2354 15.5571 19.0475 15.3692L17.1042 13.4167ZM14.3542 13.4167C13.2129 13.4167 12.2917 12.4954 12.2917 11.3542C12.2917 10.2129 13.2129 9.29166 14.3542 9.29166C15.4954 9.29166 16.4167 10.2129 16.4167 11.3542C16.4167 12.4954 15.4954 13.4167 14.3542 13.4167Z" fill="#041D33"/>
</svg>
