<svg width="25" height="21" viewBox="0 0 25 21" fill="none" xmlns="http://www.w3.org/2000/svg">
<path fill-rule="evenodd" clip-rule="evenodd" d="M23.6853 0.989368C24.0205 1.38055 24.2088 1.91104 24.2088 2.46417C24.2088 3.0173 24.0205 3.54778 23.6853 3.93896L10.2837 19.5742C10.1066 19.7809 9.8963 19.9448 9.66488 20.0567C9.43346 20.1685 9.18542 20.2261 8.93493 20.2261C8.68444 20.2261 8.4364 20.1685 8.20498 20.0567C7.97356 19.9448 7.76329 19.7809 7.58618 19.5742L0.92769 11.8073C0.756918 11.6149 0.620705 11.3847 0.526998 11.1302C0.433291 10.8757 0.383966 10.602 0.381903 10.325C0.37984 10.0481 0.42508 9.77337 0.514982 9.51701C0.604884 9.26065 0.737648 9.02774 0.905528 8.83188C1.07341 8.63602 1.27304 8.48113 1.49278 8.37625C1.71252 8.27136 1.94796 8.21858 2.18537 8.22099C2.42278 8.2234 2.6574 8.28094 2.87554 8.39027C3.09368 8.49959 3.29098 8.65851 3.45591 8.85774L8.93433 15.2492L21.1559 0.989368C21.3219 0.795524 21.5191 0.641751 21.7361 0.536837C21.9531 0.431922 22.1857 0.377922 22.4206 0.377922C22.6555 0.377922 22.8881 0.431922 23.1051 0.536837C23.3221 0.641751 23.5192 0.795524 23.6853 0.989368Z" fill="white"/>
</svg>
