<svg width="70" height="67" viewBox="0 0 70 67" fill="none" xmlns="http://www.w3.org/2000/svg">
<path d="M22.1997 63.1941C17.8288 63.1941 14.1025 61.6532 11.0207 58.5714C7.93892 55.4897 6.3991 51.7644 6.4012 47.3956V18.9582C4.66336 18.9582 3.17514 18.3389 1.93654 17.1003C0.697935 15.8617 0.079686 14.3746 0.0817925 12.6388V6.31941C0.0817925 4.58158 0.701095 3.09336 1.9397 1.85475C3.1783 0.616147 4.66547 -0.00210111 6.4012 5.36453e-06H37.9982C39.7361 5.36453e-06 41.2243 0.619308 42.4629 1.85791C43.7015 3.09652 44.3198 4.58368 44.3177 6.31941V12.6388C44.3177 14.3767 43.6984 15.8649 42.4598 17.1035C41.2211 18.3421 39.734 18.9603 37.9982 18.9582V28.5163C35.7865 29.9382 33.9033 31.7161 32.3487 33.8499C30.7941 35.9838 29.7019 38.3925 29.0721 41.0762H22.1997V34.7568H31.6788V31.597H22.1997V25.2776H31.6788V18.9582H12.7206V47.3956C12.7206 50.0287 13.6422 52.2668 15.4854 54.1099C17.3285 55.9531 19.5666 56.8747 22.1997 56.8747C23.7796 56.8747 25.2278 56.5324 26.5443 55.8478C27.8609 55.1632 28.9668 54.2153 29.862 53.004C30.2833 54.0573 30.7573 55.0579 31.2839 56.0058C31.8105 56.9537 32.4424 57.8753 33.1797 58.7705C31.7578 60.1397 30.1116 61.2193 28.2411 62.0092C26.3705 62.7991 24.3568 63.1941 22.1997 63.1941ZM22.1997 50.5553V44.2359H28.5981C28.4928 45.2891 28.4791 46.3423 28.5571 47.3956C28.635 48.4488 28.8067 49.502 29.0721 50.5553H22.1997ZM49.0572 53.715C51.269 53.715 53.1385 52.9514 54.6657 51.4242C56.1929 49.897 56.9565 48.0275 56.9565 45.8157C56.9565 43.6039 56.1929 41.7344 54.6657 40.2072C53.1385 38.6801 51.269 37.9165 49.0572 37.9165C46.8454 37.9165 44.9759 38.6801 43.4487 40.2072C41.9216 41.7344 41.158 43.6039 41.158 45.8157C41.158 48.0275 41.9216 49.897 43.4487 51.4242C44.9759 52.9514 46.8454 53.715 49.0572 53.715ZM65.1717 66.3538L56.6405 57.8226C55.4819 58.5599 54.2707 59.1128 53.0068 59.4814C51.743 59.8501 50.4264 60.0344 49.0572 60.0344C45.1076 60.0344 41.7509 58.6515 38.9872 55.8857C36.2235 53.1199 34.8407 49.7632 34.8385 45.8157C34.8385 41.8661 36.2214 38.5084 38.9872 35.7426C41.753 32.9768 45.1097 31.5949 49.0572 31.597C53.0068 31.597 56.3646 32.9799 59.1304 35.7457C61.8961 38.5115 63.278 41.8682 63.2759 45.8157C63.2759 47.1849 63.0916 48.5015 62.7229 49.7654C62.3543 51.0292 61.8014 52.2405 61.0641 53.399L69.5953 61.9302L65.1717 66.3538Z" fill="white"/>
</svg>
