<svg width="59" height="67" viewBox="0 0 59 67" fill="none" xmlns="http://www.w3.org/2000/svg">
<path d="M58.7818 64.0298V66.6326H0.478271V64.0298C0.478271 63.1673 1.17752 62.4681 2.03997 62.4681H4.64281V15.617C4.64281 13.892 6.04118 12.4936 7.76621 12.4936H19.2187V3.1234C19.2187 1.39837 20.6171 0 22.3421 0H36.918C38.643 0 40.0414 1.39837 40.0414 3.1234V12.4936H51.4939C53.2189 12.4936 54.6173 13.892 54.6173 15.617V62.4681H57.2201C58.0825 62.4681 58.7818 63.1673 58.7818 64.0298ZM40.5619 24.9872H35.3563C34.4938 24.9872 33.7946 25.6865 33.7946 26.5489V31.7546C33.7946 32.617 34.4938 33.3163 35.3563 33.3163H40.5619C41.4244 33.3163 42.1236 32.617 42.1236 31.7546V26.5489C42.1236 25.6865 41.4244 24.9872 40.5619 24.9872ZM18.6981 33.3163H23.9038C24.7662 33.3163 25.4655 32.617 25.4655 31.7546V26.5489C25.4655 25.6865 24.7662 24.9872 23.9038 24.9872H18.6981C17.8357 24.9872 17.1364 25.6865 17.1364 26.5489V31.7546C17.1364 32.617 17.8357 33.3163 18.6981 33.3163ZM32.2329 49.9744H27.0272C26.1647 49.9744 25.4655 50.6737 25.4655 51.5362V62.4681H33.7946V51.5362C33.7946 50.6737 33.0953 49.9744 32.2329 49.9744ZM40.5619 37.4808H35.3563C34.4938 37.4808 33.7946 38.1801 33.7946 39.0425V44.2482C33.7946 45.1107 34.4938 45.8099 35.3563 45.8099H40.5619C41.4244 45.8099 42.1236 45.1107 42.1236 44.2482V39.0425C42.1236 38.1801 41.4244 37.4808 40.5619 37.4808ZM25.4655 39.0425C25.4655 38.1801 24.7662 37.4808 23.9038 37.4808H18.6981C17.8357 37.4808 17.1364 38.1801 17.1364 39.0425V44.2482C17.1364 45.1107 17.8357 45.8099 18.6981 45.8099H23.9038C24.7662 45.8099 25.4655 45.1107 25.4655 44.2482V39.0425ZM24.1641 12.4936H27.5478V15.8773C27.5478 16.0844 27.63 16.283 27.7765 16.4294C27.9229 16.5759 28.1215 16.6581 28.3286 16.6581H30.9315C31.1385 16.6581 31.3372 16.5759 31.4836 16.4294C31.63 16.283 31.7123 16.0844 31.7123 15.8773V12.4936H35.096C35.3031 12.4936 35.5017 12.4113 35.6481 12.2649C35.7946 12.1185 35.8768 11.9199 35.8768 11.7128V9.10993C35.8768 8.90283 35.7946 8.70422 35.6481 8.55778C35.5017 8.41134 35.3031 8.32907 35.096 8.32907H31.7123V4.94539C31.7123 4.73829 31.63 4.53968 31.4836 4.39324C31.3372 4.24681 31.1385 4.16454 30.9315 4.16454H28.3286C28.1215 4.16454 27.9229 4.24681 27.7765 4.39324C27.63 4.53968 27.5478 4.73829 27.5478 4.94539V8.32907H24.1641C23.957 8.32907 23.7584 8.41134 23.6119 8.55778C23.4655 8.70422 23.3832 8.90283 23.3832 9.10993V11.7128C23.3832 11.9199 23.4655 12.1185 23.6119 12.2649C23.7584 12.4113 23.957 12.4936 24.1641 12.4936Z" fill="white"/>
</svg>
