<svg width="67" height="67" viewBox="0 0 67 67" fill="none" xmlns="http://www.w3.org/2000/svg">
<path d="M65.6454 34.2099L35.801 1.04953C34.5443 -0.349842 32.1302 -0.349842 30.8734 1.04953L1.02905 34.2099C0.599476 34.6861 0.317508 35.2768 0.217429 35.9102C0.117349 36.5437 0.20347 37.1925 0.465321 37.7779C0.995887 38.975 2.18303 39.7443 3.49286 39.7443H10.1249V62.9566C10.1249 63.8361 10.4743 64.6795 11.0962 65.3014C11.7181 65.9233 12.5615 66.2726 13.441 66.2726H53.2334C54.1129 66.2726 54.9564 65.9233 55.5782 65.3014C56.2001 64.6795 56.5495 63.8361 56.5495 62.9566V39.7443H63.1816C63.8238 39.7471 64.4529 39.5629 64.9922 39.2143C65.5316 38.8656 65.9578 38.3676 66.219 37.7809C66.4802 37.1942 66.565 36.5442 66.4632 35.9101C66.3613 35.276 66.0772 34.6853 65.6454 34.2099ZM46.6014 43.0604H36.6533V53.0085H30.0212V43.0604H20.0731V36.4283H30.0212V26.4802H36.6533V36.4283H46.6014V43.0604Z" fill="white"/>
</svg>
